<svg enable-background="new 0 0 168.509 680.206" height="681" viewBox="0 0 168.509 680.206" width="169" xmlns="http://www.w3.org/2000/svg"><path d="m51.866 467.533-24.788 3.876 14.769 185.484h7.243c-.89-4.23 2.776-189.36 2.776-189.36z" fill="#ff564f"/><path d="m73.909 467.533 24.788 3.876-14.769 185.485h-7.243c.89-4.231-2.776-189.361-2.776-189.361z" fill="#ff564f"/><path d="m36.913 649.889 15.1 5.8s2.7 19 1.9 23.7h-3.9l-4.7-12s-10.5 7-19 10.1c-8.6 3.1-25.2 2.7-25.2 2.7z" fill="#324a58"/><path d="m87.506 649.889-15.1 5.8s-2.7 19-1.9 23.7h3.9l4.7-12s10.5 7 19 10.1c8.6 3.1 25.2 2.7 25.2 2.7z" fill="#324a58"/><path d="m104.2 102.591-24.743-26.287-30.362 5.095-10.293 61.238h.093c2.544.077 4.737.072 6.108-.806l.287-.133c3.097-1.816 11.454-6.798 13.23-30.444.013-.424.377-.767.801-.754s.767.377.754.801c-1.803 24.493-10.661 29.672-13.976 31.694l-.287.133c-1.799 1.007-4.133 1.007-6.892.994-2.544-.077-5.376-.021-8.16.814-2.57.771-4.163 1.997-4.416 3.333-.257 1.478.959 3.354 3.513 5.483 4.974 3.97 14.86 6.887 14.929 6.96.419.154.621.514.535 1.006-.146.137-.218.206-.291.274-.219.206-.433.27-.784.188-.225-.083-3.153-.943-6.615-2.363.056 7.833.999 58.21 15.889 61.922 15.251 3.884 22.23-10.431 29.149-24.586l16.445-39.769c.67-2.234 1.16-6.878 1.16-6.878s1.617 2.969 3.062 3.921c.667.412 1.44.671 2.318.627 3.119-.188 7.239-3.106 10.151-17.52s-11.605-34.943-11.605-34.943zm-58.903 30.359.736-16.448c.07-1.123 1.267-2.078 2.569-2.024s2.404 1.08 2.334 2.203l-1.451 17.329c.336 1.657-4.31 3.234-4.188-1.06zm21.413 2.351 4.092-18.65c.299-1.269 1.671-2.143 2.94-1.844 1.27.299 2.143 1.671 1.844 2.941l-4.976 19.525c-.009 1.955-4.9 2.91-3.9-1.972zm13.831 38.449c-.476 1.683-1.944 3.478-2.891 4.369-4.369 4.112-12.362 1.748-12.435 1.817-.42-.154-.621-.514-.608-.938.154-.419.514-.621.938-.608 0 0 2.6.574 5.44.235 3.624-.527 6.01-2.224 7.024-5.376 2.018-5.881.848-9.312.848-9.312-.129-.429.025-.849.454-.977s.848.026.977.454c-.004.141 2.497 3.966.253 10.336zm14.344-43.852c-.077.21-.15.279-.295.416-.146.137-.433.27-.643.193-.42-.154-.694-.445-.608-.938.004-.141.664-3.234 2.471-6.858 2.339-4.811 5.547-7.968 9.261-9.129.428-.128.848.026 1.045.527.129.429-.025.848-.526 1.045-8.003 2.588-10.633 14.676-10.705 14.744zm17.253-9.098c-3.116 1.312-5.343 3.043-6.941 4.848.601.348 5.397 3.698 4.963 9.1-.283 2.326-1.542 4.198-2.853 5.432-1.675 1.576-3.607 2.296-3.68 2.365-.428.128-.848-.026-.977-.454s.025-.848.454-.977c.073-.069 5.08-1.898 5.504-6.554.355-4.729-4.297-7.629-4.365-7.702-.005-.003-.008-.008-.013-.012-2.997 4.097-3.064 8.174-3.067 8.266-.15.278-.227.488-.373.625s-.36.201-.501.197c-.424-.013-.767-.377-.754-.801.004-.141.184-10.747 11.938-15.768.359-.201.848.026 1.049.385.203.36-.024.848-.384 1.05z" fill="#ff564f"/><path d="m93.976 433.654c-.767-.313-1.135-1.189-.821-1.956.312-.766 1.184-1.136 1.953-.822.076.03 2.542.971 6.385 1.16l-.668-19.5-80.417-3.14.05 23.529c2.653.216 5.761-.122 9.151-1.611.762-.337 1.644.011 1.977.77.334.759-.011 1.644-.77 1.977-3.217 1.414-6.222 1.934-8.899 1.934-.497 0-.979-.021-1.452-.055l.209 97.502 84.249-1.351-3.325-97.014c-4.494-.184-7.404-1.334-7.622-1.423z" fill="#324a58"/><path d="m3.276 281.545c-.43 0-.827-.278-.957-.711-.16-.529.14-1.087.668-1.246l4.078-1.229c.535-.167 1.087.14 1.246.668.16.529-.14 1.087-.668 1.246l-4.078 1.229c-.096.029-.194.043-.289.043z" fill="#ff9b19"/><path d="m4.974 289.923c-.43 0-.827-.278-.957-.711-.16-.528.14-1.087.668-1.246l4.574-1.381c.533-.158 1.087.14 1.246.668.16.528-.14 1.087-.668 1.246l-4.574 1.381c-.096.029-.193.043-.289.043z" fill="#ff9b19"/><path d="m6.786 297.847c-.419 0-.809-.265-.948-.684-.175-.524.108-1.091.632-1.265l4.075-1.358c.526-.174 1.09.108 1.265.632s-.108 1.091-.632 1.265l-4.075 1.358c-.106.035-.213.052-.317.052z" fill="#ff9b19"/><path d="m5.956 256.58c-3.214 0-5.829-2.518-5.951-5.731-.061-1.591.501-3.11 1.583-4.277 1.082-1.168 2.553-1.845 4.144-1.905l.232-.004c3.214 0 5.829 2.518 5.951 5.731.061 1.591-.501 3.11-1.583 4.278s-2.553 1.845-4.144 1.905z" fill="#ff564f"/><path d="m25.126 297.253-4.497-23.483c-.234-1.224-.983-2.317-2.111-3.078-1.268-.855-2.908-1.242-4.593-1.112l-2.757-13.979c-.524.549-1.122 1.001-1.771 1.354l2.749 13.936c.107.542.637.892 1.175.788 1.495-.297 3.02-.044 4.079.672.483.326 1.095.902 1.266 1.796l4.337 22.647-14.624 5.318-4.988-25.294c-.169-.853.123-1.76.82-2.556.762-.869 1.895-1.488 3.255-1.756.26-.052.489-.204.637-.425.148-.22.202-.49.151-.75l-2.667-13.519c-.744-.038-1.457-.186-2.124-.43l2.644 13.405c-1.353.424-2.538 1.172-3.4 2.156-1.116 1.272-1.57 2.786-1.279 4.261l5.215 26.439c.057.287.235.534.49.678.151.085.321.129.491.129.115 0 .231-.02.342-.061l16.521-6.009c.459-.166.731-.645.639-1.127z" fill="#ff9b19"/><path d="m11.251 251.272h1.336v56.423h-1.336z" fill="#ff564f" transform="matrix(.9829 -.1839 .1839 .9829 -51.1943 6.9586)"/><circle cx="59.257" cy="272.852" fill="#324a58" r="5.721"/><path d="m60.295 274.384c-.364 0-.733-.1-1.064-.309-.935-.589-1.215-1.823-.625-2.758 6.207-9.846 7.158-24.047 7.167-24.189.069-1.102 1.047-1.927 2.12-1.872 1.102.068 1.94 1.017 1.872 2.119-.038.621-1.015 15.351-7.776 26.075-.381.604-1.03.934-1.694.934z" fill="#324a58"/><path d="m96.162 58.345-35.535-4.791c-1.877-.253-3.32-1.789-3.455-3.678l-2.69-37.555c-.448-6.74 4.956-12.425 11.71-12.319l33.198.519c5.498.086 9.526 5.204 8.319 10.568l-7.063 43.928c-.345 2.141-2.334 3.618-4.484 3.328z" fill="#2568ef"/><path d="m71.558 13.796h5.129v26.822h-5.129z" fill="#ff564f" transform="matrix(.9999 -.0145 .0145 .9999 -.3861 1.0758)"/><path d="m63.722 22.399h20.624v4.809h-20.624z" fill="#ff564f" transform="matrix(.9999 -.0145 .0145 .9999 -.3513 1.0743)"/><path d="m72.695 100.506c1.675-1.576 4.125-.724 7.638 2.424 1.448 1.246 5.089 4.823 3.98 6.417s-4.545.57-8.751-3.024c-2.97-2.424-3.741-4.994-2.867-5.817z" fill="#324a58"/><path d="m52.266 97.953c-1.675-1.576-4.125-.724-7.638 2.424-1.448 1.246-5.089 4.823-3.98 6.417s4.545.57 8.751-3.024c2.97-2.424 3.741-4.995 2.867-5.817z" fill="#324a58"/><path d="m.059 105.17s.844 7.171 7.951 8.447 10.306 3.071 12.692 8.378c2.318 5.234 8.233-.883 11.013 7.761s8.456 5.774 8.456 5.774l7.794-47.162s1.555-2.287 5.046-.767 6.571 9.608 10.491 6.331c3.915-3.136 7.646-7.197 14.311-.699s12.855.672 12.855.672 3.727 12.422 10.358 20.051 12.487 17.672 12.487 17.672 3.153 3.176 1.731 8.085c-1.349 4.84-2.437 8.062-2.437 8.062s7.903 5.333 13.133-3.847 6.536-5.603 13.142-6.464c6.605-.861 7.629-6.631 7.916-9.099.355-2.395 2.116-6.798 7.097-7.779 4.982-.981 6.382-2.849 6.498-6.665.115-3.817.231-7.633 7.916-9.099 0 0-40.901-34.699-54.133-43.942-13.995-9.762-24.991-18.088-38.865-6.128 0 0-4.07-8.117-14.076-7.076-9.655 1.123-14.701 11.228-19.498 17.803-6.061 8.586-19.39 32.943-41.878 39.691z" fill="#324a58"/><g fill="#2568ef"><circle cx="106.842" cy="152.008" r="1.1"/><path d="m115.244 211.379c-.343 0-.662-.176-.846-.466l-12.447-19.725c-.207-.328-.206-.746.004-1.073l13.021-20.298c.188-.293.531-.432.863-.46.349.008.668.196.843.497l10.915 18.766c.176.302.181.672.016.979l-11.489 21.256c-.169.313-.491.512-.846.523-.012.001-.023.001-.034.001zm-11.262-20.719 11.195 17.739 10.409-19.259-9.811-16.866z"/><path d="m114.361 179.854h1v20.836h-1z" transform="matrix(.8087 -.5882 .5882 .8087 -89.9467 103.9573)"/><path d="m103.786 189.676h23.108v1h-23.108z" transform="matrix(.5722 -.8201 .8201 .5722 -106.6247 175.9623)"/><path d="m115.318 170.374c-.37-11.298-8.723-17.939-8.808-18.005l.614-.789c.088.068 8.807 6.982 9.193 18.761z"/><path d="m57.183 347.346v-22.217c-9.331-.472-23.66-1.614-25.62-4.214-2.745-3.642 2.479-7.985 3.084-8.469l3.384-2.626c-.195-.135-.312-.263-.332-.382-.328-1.967 46.598-80.072 46.598-80.072s-72.24 63.022-78.142 102.368c-1.032 6.878.191 11.754 2.902 15.126 10.277 8.491 41.726 1.936 48.126.486zm-20.616-40.748 10.391-19.958c.253-.489.855-.682 1.349-.425.489.255.68.858.425 1.349l-10.391 19.958c-.178.342-.526.538-.888.538-.155 0-.313-.036-.461-.113-.489-.256-.68-.859-.425-1.349z"/><path d="m47.894 349.195c.151-.051.31-.079.472-.08 4.117-.699 7.378-1.4 9.008-1.77v-22.217c-9.331-.472-23.66-1.614-25.62-4.214-.264-.351-.539-.436-.667-.796-2.292 9.616-4.182 19.913-5.914 30.973 7.671.242 16.203-.807 22.721-1.896z"/><path d="m48.328 352.184c-5.86.976-13.326 1.908-20.496 1.908-1.046 0-2.084-.022-3.111-.065-3.88 25.632-6.401 53.623-8.031 78.261 3.218.917 7.63 1.235 12.662-.974.762-.337 1.644.011 1.977.77.334.759-.011 1.644-.77 1.977-3.217 1.414-6.222 1.934-8.899 1.934-1.903 0-3.635-.266-5.168-.656-2.381 37.241-2.729 66.083-2.729 66.083s13.55.119 26.104.026l-.176-70.119c6.572-.152 36.4-4.355 42.792-4.642l-4.415 73.358s47.66-2.604 48.566-1.698c0 0-7.945-103.478-9.31-121.94-8.418-2.901-27.13-9.448-68.996-24.223zm67.422 80.036c-4.859 2.22-9.343 2.883-12.961 2.883-5.169 0-8.576-1.352-8.813-1.448-.767-.313-1.135-1.189-.821-1.956.312-.766 1.184-1.136 1.953-.822.144.057 8.859 3.428 19.396-1.385.758-.346 1.644-.012 1.987.741.345.752.013 1.643-.741 1.987z"/><path d="m115.542 237.29c-30.566-39.17-69.603 43.716-69.603 43.716-5.351 7.641-9.977 19.46-13.703 33.878.989-1.341 2.333-2.224 2.602-2.438l9.237-7.17c.032-.025.07-.038.104-.06l9.672-18.577c.253-.489.855-.682 1.349-.425.489.255.68.858.425 1.349l-9.303 17.868 56.605 27.017c3.026-30.331 3.901-53.638 3.911-53.876.02-.54.463-.964.998-.964.013 0 .025 0 .037.001.553.02.983.483.963 1.035-.009.246-.937 24.968-4.184 56.634-.053.516-.487.898-.994.898-.034 0-.068-.002-.103-.005-.375-.039-.668-.287-.806-.611-.191-.01-.384-.056-.568-.144l-56.997-27.204-8.489 6.59c-1.206.97-3.285 3.324-2.545 4.306 1.463 1.249 14.025 2.596 24.794 3.094.801.036 1.431.696 1.431 1.498v24.836c0 .689-.471 1.291-1.14 1.456-.338.083-2.175.53-4.986 1.1 19.659 6.932 55.509 19.553 66.915 23.475 2.289.529 4.561.275 9.396-4.299 9.447-8.937.034-113.691-15.018-132.978z"/></g><path d="m91.524 327.098c3.079-35.486 6.029-69.48 7.263-83.694 0 0-4.151-8.063-6.224-6.469 0 0-26.57 17.774-41.106 71.04z" fill="#ffe7e6"/><path d="m57.183 325.129c-2.886-.146-6.249-.356-9.577-.653-1.532 7.802-2.799 16.226-3.719 25.312 6.102-.879 11.133-1.952 13.296-2.442z" fill="#ffe7e6"/><path d="m43.592 352.877c-.481 5.289-.853 10.785-1.084 16.518l-3.267 65.781h42.906s2.715-31.289 5.99-69.036c-10.137-3.563-23.114-8.133-39.738-14-1.504.253-3.118.504-4.807.737z" fill="#ffe7e6"/><path d="m95.344 328.829.004-.072-1.147-.473z" fill="#2568ef"/><path d="m42.096 306.813-.856-.352-.378 1.31z" fill="#2568ef"/><path d="m57.375 347.346v-22.217c-6.491-.328-15.398-.981-20.88-2.224l-6.513 22.573 14.204 4.294c6.053-.876 11.038-1.939 13.189-2.426z" fill="#2568ef"/><path d="m45.184 308.213-5.734 4.451-2.141 7.419c4.706.916 13.66 1.75 21.635 2.119.801.036 1.431.696 1.431 1.498v24.836c0 .689-.471 1.291-1.14 1.456-.463.114-3.729.909-8.473 1.769l42.251 12.774 2.12-32.482z" fill="#2568ef"/><path d="m157.899 316.904c5.268-3.098 9.372-4.245 8.158-7.85-.26-.772-1.218-2.913-9.576 1.442-18.304 9.537-37.296 11.009-37.296 11.009s7.887-4.3 19.936-10.553c8.798-4.566 16.294-10.755 14.757-12.499-1.402-1.59-8.125.14-17.82 5.457-6.323 3.468-12.999 6.97-16.691 8.354-7.781 2.918-19.454 5.224-19.227.923.154-2.923 3.032-6.408 3.59-7.329.678.106 4.826.165 5.57.165 4.101 0 10.998-3.882 10.998-6.014s-9.784-2.124-13.885-2.124c-.701 0-1.377.054-2.021.149v-.149l-.223.18c-3.003.495-5.478.85-6.48 2.389-.085.13-13.853 22.323-13.853 22.323l-23.675 2.862-.092 20.797s42.316-.208 47.773-.876c2.308-.283 6.413-.041 9.615.472 2.784.445 9.802.592 14.06.379 15.923-.795 26.425-.24 23.38-4.615-.45-.647-12.667.408-19.073-.154-8.768-.769-13.69-2.461-13.69-2.461 11.075-2.153 26.684-4.79 30.517-5.761 10.494-2.659 11.306-5.773 10.246-6.656-1.337-1.114-6.328-.212-13.253.668-4.574.581-8.105 1.213-13.142 1.893-10.773 1.454-15.446 1.194-15.446 1.194s12.076-1.926 27.612-9.002c5.047-2.296 4.896-2.064 9.231-4.613z" fill="#ff564f"/><path d="m35.252 313.023 7.963-6.628s-11.731-10.303-17.32-11.589c-4.488-1.033-15.025 1.684-17.674 5.88-.339.537-1.001 3.199-1.001 3.199l-3.301 9.706s.07 14.869 2.491 15.396c2.194.478 2.411-9.393 4.642-12.019.857-1.008 3.9-5.126 5.377-6.056 7.588-4.782 5.095-4.099 5.095-4.099z" fill="#ff564f"/><path d="m73.302 287.475-3.412-3.654c30.51-28.486 32.917-42.973 31.636-49.072-1.199-5.711-6.057-7.474-6.263-7.546l1.598-4.738c.313.104 7.682 2.649 9.531 11.13 2.763 12.671-8.37 30.8-33.09 53.88z" fill="#324a58"/><circle cx="35.653" cy="261.909" fill="#324a58" r="5.721"/><path d="m38.787 260.12c-.469 0-.939-.164-1.319-.498-.83-.729-.911-1.993-.182-2.822 7.689-8.748 15.158-13.395 22.197-13.815 3.403-.201 5.966.658 7.594 1.476 9.049-14.844 25.085-23.503 25.789-23.879.978-.516 2.186-.149 2.705.825s.15 2.186-.824 2.705c-.169.091-17.022 9.209-25.227 24.105-.294.534-.815.904-1.417 1.007-.598.101-1.215-.074-1.669-.482-.375-.319-9.737-7.965-26.145 10.699-.395.449-.946.679-1.502.679z" fill="#324a58"/><path d="m99.357 164.86-16.105 38.703c-.413 14.438-.757 31.44-.61 35.775.223 8.906 2.814 14.359 9.851 12.599 7.036-1.76 7.122-6.059 6.8-9.966-.324-3.807-.325-33.913.007-40.508.359-6.199.226-23.491.057-36.603z" fill="#ff564f"/><ellipse cx="72.556" cy="283.425" fill="#324a58" rx="7.381" ry="11.827"/><ellipse cx="72.556" cy="283.425" fill="#ff9b19" rx="4.179" ry="6.877"/><path d="m98.864 431.696 8.297-28.14c.597-2.123 2.748-3.41 4.901-2.931 2.235.497 3.647 2.707 3.157 4.944l-8.054 26.098s-4.189 1.817-8.301.029z" fill="#ff9b19"/></svg>