<svg id="visual" viewBox="0 0 900 600" width="900" height="600" xmlns="http://www.w3.org/2000/svg" xmlns:xlink="http://www.w3.org/1999/xlink" version="1.1"><rect x="0" y="0" width="900" height="600" fill="#FFFFFF"></rect><path d="M0 517L21.5 497.3C43 477.7 86 438.3 128.8 415.2C171.7 392 214.3 385 257.2 401.5C300 418 343 458 385.8 469.2C428.7 480.3 471.3 462.7 514.2 462.3C557 462 600 479 642.8 478.7C685.7 478.3 728.3 460.7 771.2 459.8C814 459 857 475 878.5 483L900 491L900 601L878.5 601C857 601 814 601 771.2 601C728.3 601 685.7 601 642.8 601C600 601 557 601 514.2 601C471.3 601 428.7 601 385.8 601C343 601 300 601 257.2 601C214.3 601 171.7 601 128.8 601C86 601 43 601 21.5 601L0 601Z" fill="#0066FF" stroke-linecap="round" stroke-linejoin="miter"></path></svg>